<svg id="SvgjsSvg1386" width="1120.5" height="787.5" xmlns="http://www.w3.org/2000/svg" version="1.1" xmlns:xlink="http://www.w3.org/1999/xlink" xmlns:svgjs="http://svgjs.com/svgjs"><defs id="SvgjsDefs1387"><marker id="SvgjsMarker1409" markerWidth="13" markerHeight="9" refX="9.5" refY="4.5" viewBox="0 0 13 9" orient="auto" markerUnits="userSpaceOnUse" stroke-dasharray="0,0"><path id="SvgjsPath1410" d="M0,0 L13,4.5 L0,9 L0,0" fill="#323232" stroke="#323232" stroke-width="1"></path></marker><marker id="SvgjsMarker1419" markerWidth="13" markerHeight="9" refX="9.5" refY="4.5" viewBox="0 0 13 9" orient="auto" markerUnits="userSpaceOnUse" stroke-dasharray="0,0"><path id="SvgjsPath1420" d="M0,0 L13,4.5 L0,9 L0,0" fill="#323232" stroke="#323232" stroke-width="1"></path></marker><marker id="SvgjsMarker1429" markerWidth="13" markerHeight="9" refX="9.5" refY="4.5" viewBox="0 0 13 9" orient="auto" markerUnits="userSpaceOnUse" stroke-dasharray="0,0"><path id="SvgjsPath1430" d="M0,0 L13,4.5 L0,9 L0,0" fill="#323232" stroke="#323232" stroke-width="1"></path></marker><marker id="SvgjsMarker1439" markerWidth="13" markerHeight="9" refX="9.5" refY="4.5" viewBox="0 0 13 9" orient="auto" markerUnits="userSpaceOnUse" stroke-dasharray="0,0"><path id="SvgjsPath1440" d="M0,0 L13,4.5 L0,9 L0,0" fill="#323232" stroke="#323232" stroke-width="1"></path></marker><marker id="SvgjsMarker1499" markerWidth="13" markerHeight="9" refX="9.5" refY="4.5" viewBox="0 0 13 9" orient="auto" markerUnits="userSpaceOnUse" stroke-dasharray="0,0"><path id="SvgjsPath1500" d="M0,0 L13,4.5 L0,9 L0,0" fill="#caedb4" stroke="#caedb4" stroke-width="1"></path></marker><marker id="SvgjsMarker1546" markerWidth="13" markerHeight="9" refX="9.5" refY="4.5" viewBox="0 0 13 9" orient="auto" markerUnits="userSpaceOnUse" stroke-dasharray="0,0"><path id="SvgjsPath1547" d="M0,0 L13,4.5 L0,9 L0,0" fill="#323232" stroke="#323232" stroke-width="1"></path></marker><marker id="SvgjsMarker1556" markerWidth="13" markerHeight="9" refX="9.5" refY="4.5" viewBox="0 0 13 9" orient="auto" markerUnits="userSpaceOnUse" stroke-dasharray="0,0"><path id="SvgjsPath1557" d="M0,0 L13,4.5 L0,9 L0,0" fill="#323232" stroke="#323232" stroke-width="1"></path></marker><marker id="SvgjsMarker1572" markerWidth="13" markerHeight="9" refX="9.5" refY="4.5" viewBox="0 0 13 9" orient="auto" markerUnits="userSpaceOnUse" stroke-dasharray="0,0"><path id="SvgjsPath1573" d="M0,0 L13,4.5 L0,9 L0,0" fill="#323232" stroke="#323232" stroke-width="1"></path></marker><marker id="SvgjsMarker1582" markerWidth="13" markerHeight="9" refX="9.5" refY="4.5" viewBox="0 0 13 9" orient="auto" markerUnits="userSpaceOnUse" stroke-dasharray="0,0"><path id="SvgjsPath1583" d="M0,0 L13,4.5 L0,9 L0,0" fill="#caedb4" stroke="#caedb4" stroke-width="1"></path></marker><marker id="SvgjsMarker1598" markerWidth="13" markerHeight="9" refX="9.5" refY="4.5" viewBox="0 0 13 9" orient="auto" markerUnits="userSpaceOnUse" stroke-dasharray="0,0"><path id="SvgjsPath1599" d="M0,0 L13,4.5 L0,9 L0,0" fill="#ec7270" stroke="#ec7270" stroke-width="1"></path></marker><marker id="SvgjsMarker1606" markerWidth="13" markerHeight="9" refX="9.5" refY="4.5" viewBox="0 0 13 9" orient="auto" markerUnits="userSpaceOnUse" stroke-dasharray="0,0"><path id="SvgjsPath1607" d="M0,0 L13,4.5 L0,9 L0,0" fill="#323232" stroke="#323232" stroke-width="1"></path></marker><marker id="SvgjsMarker1614" markerWidth="13" markerHeight="9" refX="9.5" refY="4.5" viewBox="0 0 13 9" orient="auto" markerUnits="userSpaceOnUse" stroke-dasharray="0,0"><path id="SvgjsPath1615" d="M0,0 L13,4.5 L0,9 L0,0" fill="#5b79e8" stroke="#5b79e8" stroke-width="1"></path></marker><marker id="SvgjsMarker1634" markerWidth="13" markerHeight="9" refX="9.5" refY="4.5" viewBox="0 0 13 9" orient="auto" markerUnits="userSpaceOnUse" stroke-dasharray="0,0"><path id="SvgjsPath1635" d="M0,0 L13,4.5 L0,9 L0,0" fill="#323232" stroke="#323232" stroke-width="1"></path></marker><marker id="SvgjsMarker1650" markerWidth="13" markerHeight="9" refX="9.5" refY="4.5" viewBox="0 0 13 9" orient="auto" markerUnits="userSpaceOnUse" stroke-dasharray="0,0"><path id="SvgjsPath1651" d="M0,0 L13,4.5 L0,9 L0,0" fill="#e855a4" stroke="#e855a4" stroke-width="1"></path></marker><marker id="SvgjsMarker1654" markerWidth="13" markerHeight="9" refX="9.5" refY="4.5" viewBox="0 0 13 9" orient="auto" markerUnits="userSpaceOnUse" stroke-dasharray="0,0"><path id="SvgjsPath1655" d="M0,0 L13,4.5 L0,9 L0,0" fill="#e855a4" stroke="#e855a4" stroke-width="1"></path></marker><marker id="SvgjsMarker1666" markerWidth="13" markerHeight="9" refX="9.5" refY="4.5" viewBox="0 0 13 9" orient="auto" markerUnits="userSpaceOnUse" stroke-dasharray="0,0"><path id="SvgjsPath1667" d="M0,0 L13,4.5 L0,9 L0,0" fill="#4ccbcd" stroke="#4ccbcd" stroke-width="1"></path></marker><marker id="SvgjsMarker1676" markerWidth="13" markerHeight="9" refX="9.5" refY="4.5" viewBox="0 0 13 9" orient="auto" markerUnits="userSpaceOnUse" stroke-dasharray="0,0"><path id="SvgjsPath1677" d="M0,0 L13,4.5 L0,9 L0,0" fill="#4ccbcd" stroke="#4ccbcd" stroke-width="1"></path></marker><marker id="SvgjsMarker1738" markerWidth="13" markerHeight="9" refX="9.5" refY="4.5" viewBox="0 0 13 9" orient="auto" markerUnits="userSpaceOnUse" stroke-dasharray="0,0"><path id="SvgjsPath1739" d="M0,0 L13,4.5 L0,9 L0,0" fill="#323232" stroke="#323232" stroke-width="1"></path></marker><marker id="SvgjsMarker1742" markerWidth="13" markerHeight="9" refX="3.5" refY="4.5" viewBox="0 0 13 9" orient="auto" markerUnits="userSpaceOnUse" stroke-dasharray="0,0"><path id="SvgjsPath1743" d="M13,0 L0,4.5 L13,9 L13,0" fill="#323232" stroke="#323232" stroke-width="1"></path></marker><marker id="SvgjsMarker1744" markerWidth="13" markerHeight="9" refX="9.5" refY="4.5" viewBox="0 0 13 9" orient="auto" markerUnits="userSpaceOnUse" stroke-dasharray="0,0"><path id="SvgjsPath1745" d="M0,0 L13,4.5 L0,9 L0,0" fill="#323232" stroke="#323232" stroke-width="1"></path></marker><marker id="SvgjsMarker1748" markerWidth="13" markerHeight="9" refX="9.5" refY="4.5" viewBox="0 0 13 9" orient="auto" markerUnits="userSpaceOnUse" stroke-dasharray="0,0"><path id="SvgjsPath1749" d="M0,0 L13,4.5 L0,9 L0,0" fill="#323232" stroke="#323232" stroke-width="1"></path></marker><marker id="SvgjsMarker1764" markerWidth="13" markerHeight="9" refX="9.5" refY="4.5" viewBox="0 0 13 9" orient="auto" markerUnits="userSpaceOnUse" stroke-dasharray="0,0"><path id="SvgjsPath1765" d="M0,0 L13,4.5 L0,9 L0,0" fill="#e855a4" stroke="#e855a4" stroke-width="1"></path></marker><marker id="SvgjsMarker1768" markerWidth="13" markerHeight="9" refX="9.5" refY="4.5" viewBox="0 0 13 9" orient="auto" markerUnits="userSpaceOnUse" stroke-dasharray="0,0"><path id="SvgjsPath1769" d="M0,0 L13,4.5 L0,9 L0,0" fill="#323232" stroke="#323232" stroke-width="1"></path></marker><marker id="SvgjsMarker1776" markerWidth="13" markerHeight="9" refX="9.5" refY="4.5" viewBox="0 0 13 9" orient="auto" markerUnits="userSpaceOnUse" stroke-dasharray="0,0"><path id="SvgjsPath1777" d="M0,0 L13,4.5 L0,9 L0,0" fill="#323232" stroke="#323232" stroke-width="1"></path></marker></defs><rect id="svgbackgroundid" width="1120.5" height="787.5" fill="#ffffff"></rect><g id="SvgjsG1389" transform="translate(378.5,236)"><path id="SvgjsPath1390" d="M 0 0L 717 0L 717 350L 0 350Z" stroke-dasharray="10,6" stroke="rgba(50,50,50,1)" stroke-width="1.5" fill-opacity="1" fill="#d6d6d6"></path><g id="SvgjsG1391"><text id="SvgjsText1392" font-family="微软雅黑" text-anchor="middle" font-size="13px" width="697px" fill="#323232" font-weight="400" align="top" lineHeight="125%" anchor="middle" family="微软雅黑" size="13px" weight="400" font-style="" opacity="1" y="-2.625" transform="rotate(0)"><tspan id="SvgjsTspan1393" dy="16" x="358.5"><tspan id="SvgjsTspan1394" style="text-decoration:;font-weight: bold;fill: rgb(50, 50, 50);">JVM虚拟机</tspan></tspan></text></g></g><g id="SvgjsG1395" transform="translate(625.5,147)"><path id="SvgjsPath1396" d="M 0 4Q 0 0 4 0L 145 0Q 149 0 149 4L 149 50Q 149 54 145 54L 4 54Q 0 54 0 50Z" stroke="rgba(50,50,50,1)" stroke-width="1.5" fill-opacity="1" fill="#d6d6d6"></path><g id="SvgjsG1397"><text id="SvgjsText1398" font-family="微软雅黑" text-anchor="middle" font-size="13px" width="129px" fill="#323232" font-weight="400" align="middle" lineHeight="125%" anchor="middle" family="微软雅黑" size="13px" weight="400" font-style="" opacity="1" y="16.375" transform="rotate(0)"><tspan id="SvgjsTspan1399" dy="16" x="74.5"><tspan id="SvgjsTspan1400" style="text-decoration:;">javac Math.java</tspan></tspan></text></g></g><g id="SvgjsG1401" transform="translate(861.5,147)"><path id="SvgjsPath1402" d="M 0 4Q 0 0 4 0L 145 0Q 149 0 149 4L 149 50Q 149 54 145 54L 4 54Q 0 54 0 50Z" stroke="rgba(50,50,50,1)" stroke-width="1.5" fill-opacity="1" fill="#d6d6d6"></path><g id="SvgjsG1403"><text id="SvgjsText1404" font-family="微软雅黑" text-anchor="middle" font-size="13px" width="129px" fill="#323232" font-weight="400" align="middle" lineHeight="125%" anchor="middle" family="微软雅黑" size="13px" weight="400" font-style="" opacity="1" y="16.375" transform="rotate(0)"><tspan id="SvgjsTspan1405" dy="16" x="74.5"><tspan id="SvgjsTspan1406" style="text-decoration:;">java Math.class</tspan></tspan></text></g></g><g id="SvgjsG1407"><path id="SvgjsPath1408" d="M775.25 174L818 174L818 174L858.8 174" stroke="#323232" stroke-width="1.5" fill="none" marker-end="url(#SvgjsMarker1409)"></path></g><g id="SvgjsG1411" transform="translate(875,302)"><path id="SvgjsPath1412" d="M 0 0L 122 0L 122 54L 0 54Z" stroke="rgba(50,50,50,1)" stroke-width="1.5" fill-opacity="1" fill="#a6aef3"></path><g id="SvgjsG1413"><text id="SvgjsText1414" font-family="微软雅黑" text-anchor="middle" font-size="13px" width="102px" fill="#323232" font-weight="400" align="middle" lineHeight="125%" anchor="middle" family="微软雅黑" size="13px" weight="400" font-style="" opacity="1" y="16.375" transform="rotate(0)"><tspan id="SvgjsTspan1415" dy="16" x="61"><tspan id="SvgjsTspan1416" style="text-decoration:;">类装载子系统</tspan></tspan></text></g></g><g id="SvgjsG1417"><path id="SvgjsPath1418" d="M936 201.75L936 251.5L936 251.5L936 299.3" stroke="#323232" stroke-width="1.5" fill="none" marker-end="url(#SvgjsMarker1419)"></path></g><g id="SvgjsG1421" transform="translate(423.5,281)"><path id="SvgjsPath1422" d="M 0 0L 424 0L 424 260L 0 260Z" stroke="rgba(50,50,50,1)" stroke-width="1.5" fill-opacity="1" fill="#a6aef3"></path><g id="SvgjsG1423"><text id="SvgjsText1424" font-family="微软雅黑" text-anchor="middle" font-size="13px" width="404px" fill="#323232" font-weight="400" align="top" lineHeight="125%" anchor="middle" family="微软雅黑" size="13px" weight="400" font-style="" opacity="1" y="-2.625" transform="rotate(0)"><tspan id="SvgjsTspan1425" dy="16" x="212"><tspan id="SvgjsTspan1426" style="text-decoration:;fill: rgb(50, 50, 50);">运行时数据区（内存模型）</tspan></tspan></text></g></g><g id="SvgjsG1427"><path id="SvgjsPath1428" d="M874.25 329L861.25 329L861.25 329L850.2 329" stroke="#323232" stroke-width="1.5" fill="none" marker-end="url(#SvgjsMarker1429)"></path></g><g id="SvgjsG1431" transform="translate(875,457)"><path id="SvgjsPath1432" d="M 0 0L 122 0L 122 53L 0 53Z" stroke="rgba(50,50,50,1)" stroke-width="1.5" fill-opacity="1" fill="#a6aef3"></path><g id="SvgjsG1433"><text id="SvgjsText1434" font-family="微软雅黑" text-anchor="middle" font-size="13px" width="102px" fill="#323232" font-weight="400" align="middle" lineHeight="125%" anchor="middle" family="微软雅黑" size="13px" weight="400" font-style="" opacity="1" y="15.875" transform="rotate(0)"><tspan id="SvgjsTspan1435" dy="16" x="61"><tspan id="SvgjsTspan1436" style="text-decoration:;">字节码执行引擎</tspan></tspan></text></g></g><g id="SvgjsG1437"><path id="SvgjsPath1438" d="M874.25 483.5L860.25 483.5L860.25 483.5L848.2 483.5" stroke="#323232" stroke-width="1.5" fill="none" marker-end="url(#SvgjsMarker1439)"></path></g><g id="SvgjsG1441" transform="translate(457.5,336)"><path id="SvgjsPath1442" d="M 0 4Q 0 0 4 0L 92 0Q 96 0 96 4L 96 50Q 96 54 92 54L 4 54Q 0 54 0 50Z" stroke="rgba(50,50,50,1)" stroke-width="1.5" fill-opacity="1" fill="#f6edc1"></path><g id="SvgjsG1443"><text id="SvgjsText1444" font-family="微软雅黑" text-anchor="middle" font-size="13px" width="76px" fill="#323232" font-weight="400" align="middle" lineHeight="125%" anchor="middle" family="微软雅黑" size="13px" weight="400" font-style="" opacity="1" y="16.375" transform="rotate(0)"><tspan id="SvgjsTspan1445" dy="16" x="48"><tspan id="SvgjsTspan1446" style="text-decoration:;">堆</tspan></tspan></text></g></g><g id="SvgjsG1447" transform="translate(457.5,445)"><path id="SvgjsPath1448" d="M 0 4Q 0 0 4 0L 92 0Q 96 0 96 4L 96 50Q 96 54 92 54L 4 54Q 0 54 0 50Z" stroke="rgba(50,50,50,1)" stroke-width="1.5" fill-opacity="1" fill="#f6edc1"></path><g id="SvgjsG1449"><text id="SvgjsText1450" font-family="微软雅黑" text-anchor="middle" font-size="13px" width="76px" fill="#323232" font-weight="400" align="middle" lineHeight="125%" anchor="middle" family="微软雅黑" size="13px" weight="400" font-style="" opacity="1" y="7.875" transform="rotate(0)"><tspan id="SvgjsTspan1451" dy="16" x="48"><tspan id="SvgjsTspan1452" style="text-decoration:;">方法区</tspan></tspan><tspan id="SvgjsTspan1453" dy="16" x="48"><tspan id="SvgjsTspan1454" style="text-decoration:;">（元空间）</tspan></tspan></text></g></g><g id="SvgjsG1455" transform="translate(586.5,336)"><path id="SvgjsPath1456" d="M 0 4Q 0 0 4 0L 92 0Q 96 0 96 4L 96 50Q 96 54 92 54L 4 54Q 0 54 0 50Z" stroke="rgba(50,50,50,1)" stroke-width="1.5" fill-opacity="1" fill="#caedb4"></path><g id="SvgjsG1457"><text id="SvgjsText1458" font-family="微软雅黑" text-anchor="middle" font-size="13px" width="76px" fill="#323232" font-weight="400" align="middle" lineHeight="125%" anchor="middle" family="微软雅黑" size="13px" weight="400" font-style="" opacity="1" y="16.375" transform="rotate(0)"><tspan id="SvgjsTspan1459" dy="16" x="48"><tspan id="SvgjsTspan1460" style="text-decoration:;">栈（线程）</tspan></tspan></text></g></g><g id="SvgjsG1461" transform="translate(721.5,336)"><path id="SvgjsPath1462" d="M 0 4Q 0 0 4 0L 92 0Q 96 0 96 4L 96 50Q 96 54 92 54L 4 54Q 0 54 0 50Z" stroke="rgba(50,50,50,1)" stroke-width="1.5" fill-opacity="1" fill="#caedb4"></path><g id="SvgjsG1463"><text id="SvgjsText1464" font-family="微软雅黑" text-anchor="middle" font-size="13px" width="76px" fill="#323232" font-weight="400" align="middle" lineHeight="125%" anchor="middle" family="微软雅黑" size="13px" weight="400" font-style="" opacity="1" y="16.375" transform="rotate(0)"><tspan id="SvgjsTspan1465" dy="16" x="48"><tspan id="SvgjsTspan1466" style="text-decoration:;">本地方法栈</tspan></tspan></text></g></g><g id="SvgjsG1467" transform="translate(582.5,445)"><path id="SvgjsPath1468" d="M 0 4Q 0 0 4 0L 231 0Q 235 0 235 4L 235 50Q 235 54 231 54L 4 54Q 0 54 0 50Z" stroke="rgba(50,50,50,1)" stroke-width="1.5" fill-opacity="1" fill="#caedb4"></path><g id="SvgjsG1469"><text id="SvgjsText1470" font-family="微软雅黑" text-anchor="middle" font-size="13px" width="215px" fill="#323232" font-weight="400" align="middle" lineHeight="125%" anchor="middle" family="微软雅黑" size="13px" weight="400" font-style="" opacity="1" y="16.375" transform="rotate(0)"><tspan id="SvgjsTspan1471" dy="16" x="117.5"><tspan id="SvgjsTspan1472" style="text-decoration:;">程序计数器</tspan></tspan></text></g></g><g id="SvgjsG1473" transform="translate(25,184.5)"><path id="SvgjsPath1474" d="M 0 0L 179.5 0L 179.5 491.5L 0 491.5Z" stroke="rgba(50,50,50,1)" stroke-width="1.5" fill-opacity="1" fill="#efeceb"></path><g id="SvgjsG1475"><text id="SvgjsText1476" font-family="微软雅黑" text-anchor="middle" font-size="13px" width="160px" fill="#323232" font-weight="400" align="top" lineHeight="125%" anchor="middle" family="微软雅黑" size="13px" weight="400" font-style="" opacity="1" y="-2.625" transform="rotate(0)"><tspan id="SvgjsTspan1477" dy="16" x="90"><tspan id="SvgjsTspan1478" style="text-decoration:;">main线程</tspan></tspan></text></g></g><g id="SvgjsG1479" transform="translate(239.25,541)"><path id="SvgjsPath1480" d="M 0 4Q 0 0 4 0L 112 0Q 116 0 116 4L 116 90.5Q 116 94.5 112 94.5L 4 94.5Q 0 94.5 0 90.5Z" stroke="rgba(50,50,50,1)" stroke-width="1.5" fill-opacity="1" fill="#d6d6d6"></path><g id="SvgjsG1481"><text id="SvgjsText1482" font-family="微软雅黑" text-anchor="middle" font-size="13px" width="96px" fill="#323232" font-weight="400" align="top" lineHeight="125%" anchor="middle" family="微软雅黑" size="13px" weight="400" font-style="" opacity="1" y="-2.625" transform="rotate(0)"><tspan id="SvgjsTspan1483" dy="16" x="58"><tspan id="SvgjsTspan1484" style="text-decoration:;">线程2</tspan></tspan></text></g></g><g id="SvgjsG1485" transform="translate(46,208)"><path id="SvgjsPath1486" d="M 0 4Q 0 0 4 0L 132.5 0Q 136.5 0 136.5 4L 136.5 317Q 136.5 321 132.5 321L 4 321Q 0 321 0 317Z" stroke="rgba(50,50,50,1)" stroke-width="1.5" fill-opacity="1" fill="#caedb4"></path><g id="SvgjsG1487"><text id="SvgjsText1488" font-family="微软雅黑" text-anchor="middle" font-size="13px" width="117px" fill="#323232" font-weight="400" align="top" lineHeight="125%" anchor="middle" family="微软雅黑" size="13px" weight="400" font-style="" opacity="1" y="-2.625" transform="rotate(0)"><tspan id="SvgjsTspan1489" dy="16" x="68.5"><tspan id="SvgjsTspan1490" style="text-decoration:;">栈（线程）</tspan></tspan></text></g></g><g id="SvgjsG1491" transform="translate(249.25,568)"><path id="SvgjsPath1492" d="M 0 4Q 0 0 4 0L 92 0Q 96 0 96 4L 96 50Q 96 54 92 54L 4 54Q 0 54 0 50Z" stroke="rgba(50,50,50,1)" stroke-width="1.5" fill-opacity="1" fill="#caedb4"></path><g id="SvgjsG1493"><text id="SvgjsText1494" font-family="微软雅黑" text-anchor="middle" font-size="13px" width="76px" fill="#323232" font-weight="400" align="middle" lineHeight="125%" anchor="middle" family="微软雅黑" size="13px" weight="400" font-style="" opacity="1" y="16.375" transform="rotate(0)"><tspan id="SvgjsTspan1495" dy="16" x="48"><tspan id="SvgjsTspan1496" style="text-decoration:;">栈（线程）</tspan></tspan></text></g></g><g id="SvgjsG1497"><path id="SvgjsPath1498" d="M634.4624167028657 335.2509422613867C 634.5000000000001 121.69402714809834 153.5 25 114.97112489903805 205.39808169229175" stroke="#caedb4" stroke-width="1.5" fill="none" marker-end="url(#SvgjsMarker1499)"></path></g><g id="SvgjsG1501" transform="translate(55.5,442)"><path id="SvgjsPath1502" d="M 0 4Q 0 0 4 0L 111.5 0Q 115.5 0 115.5 4L 115.5 74Q 115.5 78 111.5 78L 4 78Q 0 78 0 74Z" stroke="rgba(50,50,50,1)" stroke-width="1.5" fill-opacity="1" fill="#fadded"></path><g id="SvgjsG1503"><text id="SvgjsText1504" font-family="微软雅黑" text-anchor="middle" font-size="13px" width="96px" fill="#323232" font-weight="400" align="top" lineHeight="125%" anchor="middle" family="微软雅黑" size="13px" weight="400" font-style="" opacity="1" y="-2.625" transform="rotate(0)"><tspan id="SvgjsTspan1505" dy="16" x="58"><tspan id="SvgjsTspan1506" style="text-decoration:;">main()-栈帧</tspan></tspan></text></g></g><g id="SvgjsG1507" transform="translate(55.5,234.75)"><path id="SvgjsPath1508" d="M 0 4Q 0 0 4 0L 111.5 0Q 115.5 0 115.5 4L 115.5 196.5Q 115.5 200.5 111.5 200.5L 4 200.5Q 0 200.5 0 196.5Z" stroke="rgba(50,50,50,1)" stroke-width="1.5" fill-opacity="1" fill="#fadded"></path><g id="SvgjsG1509"><text id="SvgjsText1510" font-family="微软雅黑" text-anchor="middle" font-size="13px" width="96px" fill="#323232" font-weight="400" align="top" lineHeight="125%" anchor="middle" family="微软雅黑" size="13px" weight="400" font-style="" opacity="1" y="-2.625" transform="rotate(0)"><tspan id="SvgjsTspan1511" dy="16" x="58"><tspan id="SvgjsTspan1512" style="text-decoration:;">compute()</tspan><tspan id="SvgjsTspan1513" style="text-decoration:;font-size: inherit;">-栈帧</tspan></tspan></text></g></g><g id="SvgjsG1514" transform="translate(66.375,270.5)"><path id="SvgjsPath1515" d="M 0 0L 93.75 0L 93.75 33L 0 33Z" stroke="rgba(50,50,50,1)" stroke-width="1.5" fill-opacity="1" fill="#d6d6d6"></path><g id="SvgjsG1516"><text id="SvgjsText1517" font-family="微软雅黑" text-anchor="middle" font-size="13px" width="74px" fill="#323232" font-weight="400" align="middle" lineHeight="125%" anchor="middle" family="微软雅黑" size="13px" weight="400" font-style="" opacity="1" y="5.875" transform="rotate(0)"><tspan id="SvgjsTspan1518" dy="16" x="47"><tspan id="SvgjsTspan1519" style="text-decoration:;">局部变量表</tspan></tspan></text></g></g><g id="SvgjsG1520" transform="translate(66.375,308.5)"><path id="SvgjsPath1521" d="M 0 0L 93.75 0L 93.75 33L 0 33Z" stroke="rgba(50,50,50,1)" stroke-width="1.5" fill-opacity="1" fill="#d6d6d6"></path><g id="SvgjsG1522"><text id="SvgjsText1523" font-family="微软雅黑" text-anchor="middle" font-size="13px" width="74px" fill="#323232" font-weight="400" align="middle" lineHeight="125%" anchor="middle" family="微软雅黑" size="13px" weight="400" font-style="" opacity="1" y="5.875" transform="rotate(0)"><tspan id="SvgjsTspan1524" dy="16" x="47"><tspan id="SvgjsTspan1525" style="text-decoration:;">操作数栈</tspan></tspan></text></g></g><g id="SvgjsG1526" transform="translate(66.375,346.5)"><path id="SvgjsPath1527" d="M 0 0L 93.75 0L 93.75 33L 0 33Z" stroke="rgba(50,50,50,1)" stroke-width="1.5" fill-opacity="1" fill="#d6d6d6"></path><g id="SvgjsG1528"><text id="SvgjsText1529" font-family="微软雅黑" text-anchor="middle" font-size="13px" width="74px" fill="#323232" font-weight="400" align="middle" lineHeight="125%" anchor="middle" family="微软雅黑" size="13px" weight="400" font-style="" opacity="1" y="5.875" transform="rotate(0)"><tspan id="SvgjsTspan1530" dy="16" x="47"><tspan id="SvgjsTspan1531" style="text-decoration:;">动态链接</tspan></tspan></text></g></g><g id="SvgjsG1532" transform="translate(66.375,384)"><path id="SvgjsPath1533" d="M 0 0L 93.75 0L 93.75 33L 0 33Z" stroke="rgba(50,50,50,1)" stroke-width="1.5" fill-opacity="1" fill="#d6d6d6"></path><g id="SvgjsG1534"><text id="SvgjsText1535" font-family="微软雅黑" text-anchor="middle" font-size="13px" width="74px" fill="#323232" font-weight="400" align="middle" lineHeight="125%" anchor="middle" family="微软雅黑" size="13px" weight="400" font-style="" opacity="1" y="5.875" transform="rotate(0)"><tspan id="SvgjsTspan1536" dy="16" x="47"><tspan id="SvgjsTspan1537" style="text-decoration:;">方法出口</tspan></tspan></text></g></g><g id="SvgjsG1538" transform="translate(233.5,148)"><path id="SvgjsPath1539" d="M 0 4Q 0 0 4 0L 123.5 0Q 127.5 0 127.5 4L 127.5 66Q 127.5 70 123.5 70L 4 70Q 0 70 0 66Z" stroke="rgba(50,50,50,1)" stroke-width="1.5" fill-opacity="1" fill="#d6d6d6"></path><g id="SvgjsG1540"><text id="SvgjsText1541" font-family="微软雅黑" text-anchor="middle" font-size="13px" width="108px" fill="#323232" font-weight="400" align="top" lineHeight="125%" anchor="middle" family="微软雅黑" size="13px" weight="400" font-style="" opacity="1" y="-2.625" transform="rotate(0)"><tspan id="SvgjsTspan1542" dy="16" x="64"><tspan id="SvgjsTspan1543" style="text-decoration:;">局部变量表</tspan></tspan></text></g></g><g id="SvgjsG1544"><path id="SvgjsPath1545" d="M160.85909081982481 286.846342366773C 211.0365163789098 287 182.5884836210902 183 230.85727304863065 183.55316747961717" stroke="#323232" stroke-width="1.5" fill="none" marker-end="url(#SvgjsMarker1546)"></path></g><g id="SvgjsG1548" transform="translate(233.5,290)"><path id="SvgjsPath1549" d="M 0 4Q 0 0 4 0L 123.5 0Q 127.5 0 127.5 4L 127.5 66Q 127.5 70 123.5 70L 4 70Q 0 70 0 66Z" stroke="rgba(50,50,50,1)" stroke-width="1.5" fill-opacity="1" fill="#d6d6d6"></path><g id="SvgjsG1550"><text id="SvgjsText1551" font-family="微软雅黑" text-anchor="middle" font-size="13px" width="108px" fill="#323232" font-weight="400" align="top" lineHeight="125%" anchor="middle" family="微软雅黑" size="13px" weight="400" font-style="" opacity="1" y="-2.625" transform="rotate(0)"><tspan id="SvgjsTspan1552" dy="16" x="64"><tspan id="SvgjsTspan1553" style="text-decoration:;">操作数栈</tspan></tspan></text></g></g><g id="SvgjsG1554"><path id="SvgjsPath1555" d="M160.875 325C 189.475 325 204.15 325 230.8 325" stroke="#323232" stroke-width="1.5" fill="none" marker-end="url(#SvgjsMarker1556)"></path></g><g id="SvgjsG1558" transform="translate(269.25,324)"><path id="SvgjsPath1559" d="M 7.333333333333333 0L 37.166666666666664 0C 46.94444444444444 0 46.94444444444444 22 37.166666666666664 22L 7.333333333333333 22C -2.444444444444444 22 -2.444444444444444 0 7.333333333333333 0Z" stroke-dasharray="3,4" stroke="rgba(50,50,50,1)" stroke-width="1.5" fill-opacity="1" fill="#d6d6d6"></path><g id="SvgjsG1560"><text id="SvgjsText1561" font-family="微软雅黑" text-anchor="middle" font-size="13px" width="25px" fill="#323232" font-weight="400" align="middle" lineHeight="125%" anchor="middle" family="微软雅黑" size="13px" weight="400" font-style="" opacity="1" y="0.375" transform="rotate(0)"><tspan id="SvgjsTspan1562" dy="16" x="22.5"><tspan id="SvgjsTspan1563" style="text-decoration:;">1</tspan></tspan></text></g></g><g id="SvgjsG1564" transform="translate(275,186)"><path id="SvgjsPath1565" d="M 7.333333333333333 0L 37.166666666666664 0C 46.94444444444444 0 46.94444444444444 22 37.166666666666664 22L 7.333333333333333 22C -2.444444444444444 22 -2.444444444444444 0 7.333333333333333 0Z" stroke-dasharray="3,4" stroke="rgba(50,50,50,1)" stroke-width="1.5" fill-opacity="1" fill="#d6d6d6"></path><g id="SvgjsG1566"><text id="SvgjsText1567" font-family="微软雅黑" text-anchor="middle" font-size="13px" width="25px" fill="#323232" font-weight="400" align="middle" lineHeight="125%" anchor="middle" family="微软雅黑" size="13px" weight="400" font-style="" opacity="1" y="0.375" transform="rotate(0)"><tspan id="SvgjsTspan1568" dy="16" x="22.5"><tspan id="SvgjsTspan1569" style="text-decoration:;">a=1</tspan></tspan></text></g></g><g id="SvgjsG1570"><path id="SvgjsPath1571" d="M314.4990437627975 334.96213918365686C 368.1585562076566 344.5936964408029 373.9085562076566 206.59369644080294 322.0003344636849 198.0189835963888" stroke-dasharray="8,5" stroke="#323232" stroke-width="1.5" fill="none" marker-end="url(#SvgjsMarker1572)"></path></g><g id="SvgjsG1574" transform="translate(46,549.5)"><path id="SvgjsPath1575" d="M 0 4Q 0 0 4 0L 132.5 0Q 136.5 0 136.5 4L 136.5 27Q 136.5 31 132.5 31L 4 31Q 0 31 0 27Z" stroke="rgba(50,50,50,1)" stroke-width="1.5" fill-opacity="1" fill="#caedb4"></path><g id="SvgjsG1576"><text id="SvgjsText1577" font-family="微软雅黑" text-anchor="middle" font-size="13px" width="117px" fill="#323232" font-weight="400" align="middle" lineHeight="125%" anchor="middle" family="微软雅黑" size="13px" weight="400" font-style="" opacity="1" y="4.875" transform="rotate(0)"><tspan id="SvgjsTspan1578" dy="16" x="68.5"><tspan id="SvgjsTspan1579" style="text-decoration:;">程序计数器</tspan></tspan></text></g></g><g id="SvgjsG1580"><path id="SvgjsPath1581" d="M699.8701212175171 499.73866873621455C 674.5 705 154.5 680 115.47449385131196 582.9063696324753" stroke="#caedb4" stroke-width="1.5" fill="none" marker-end="url(#SvgjsMarker1582)"></path><rect id="SvgjsRect1584" width="152" height="16" x="320.22675407713274" y="647.3979976741583" fill="#ffffff"></rect><text id="SvgjsText1585" font-family="微软雅黑" text-anchor="middle" font-size="13px" width="152px" fill="#323232" font-weight="400" align="top" lineHeight="16px" anchor="middle" family="微软雅黑" size="13px" weight="400" font-style="" opacity="1" y="644.7729976741583" transform="rotate(0)"><tspan id="SvgjsTspan1586" dy="16" x="396.22675407713274"><tspan id="SvgjsTspan1587" style="text-decoration:;">记录程序执行位置(多线程)</tspan></tspan></text></g><g id="SvgjsG1588" transform="translate(439,479.875)"><path id="SvgjsPath1589" d="M 0 24.5625C 0 -8.1875 86 -8.1875 86 24.5625C 86 57.3125 0 57.3125 0 24.5625Z" stroke="rgba(50,50,50,1)" stroke-width="1.5" fill-opacity="1" fill="#d6d6d6"></path><g id="SvgjsG1590"><text id="SvgjsText1591" font-family="微软雅黑" text-anchor="middle" font-size="13px" width="66px" fill="#323232" font-weight="400" align="middle" lineHeight="125%" anchor="middle" family="微软雅黑" size="13px" weight="400" font-style="" opacity="1" y="5.4375" transform="rotate(0)"><tspan id="SvgjsTspan1592" dy="16" x="43"><tspan id="SvgjsTspan1593" style="text-decoration:;">类信息</tspan></tspan><tspan id="SvgjsTspan1594" dy="16" x="43"><tspan id="SvgjsTspan1595" style="text-decoration:;">Math.class</tspan></tspan></text></g></g><g id="SvgjsG1596"><path id="SvgjsPath1597" d="M936 510.75L936 559L482 559L482 531.7" stroke="#ec7270" stroke-width="1.5" fill="none" marker-end="url(#SvgjsMarker1598)"></path><rect id="SvgjsRect1600" width="26" height="16" x="717.0659999999999" y="551" fill="#ffffff"></rect><text id="SvgjsText1601" font-family="微软雅黑" text-anchor="middle" font-size="13px" width="26px" fill="#e74f4c" font-weight="400" align="top" lineHeight="16px" anchor="middle" family="微软雅黑" size="13px" weight="400" font-style="" opacity="1" y="548.375" transform="rotate(0)"><tspan id="SvgjsTspan1602" dy="16" x="730.0659999999999"><tspan id="SvgjsTspan1603" style="text-decoration:;">执行</tspan></tspan></text></g><g id="SvgjsG1604"><path id="SvgjsPath1605" d="M936 456.25L936 415L700 415L700 442.3" stroke="#323232" stroke-width="1.5" fill="none" marker-end="url(#SvgjsMarker1606)"></path><rect id="SvgjsRect1608" width="26" height="16" x="818.4021915584415" y="407" fill="#ffffff"></rect><text id="SvgjsText1609" font-family="微软雅黑" text-anchor="middle" font-size="13px" width="26px" fill="#323232" font-weight="400" align="top" lineHeight="16px" anchor="middle" family="微软雅黑" size="13px" weight="400" font-style="" opacity="1" y="404.375" transform="rotate(0)"><tspan id="SvgjsTspan1610" dy="16" x="831.4021915584415"><tspan id="SvgjsTspan1611" style="text-decoration:;">修改</tspan></tspan></text></g><g id="SvgjsG1612"><path id="SvgjsPath1613" d="M160.875 363L180.125 363L180.125 402L482 402L482 477.175" stroke-dasharray="8,5" stroke="#5b79e8" stroke-width="1.5" fill="none" marker-end="url(#SvgjsMarker1614)"></path><rect id="SvgjsRect1616" width="78" height="16" x="285.837739965096" y="394" fill="#ffffff"></rect><text id="SvgjsText1617" font-family="微软雅黑" text-anchor="middle" font-size="13px" width="78px" fill="#5b79e8" font-weight="400" align="top" lineHeight="16px" anchor="middle" family="微软雅黑" size="13px" weight="400" font-style="" opacity="1" y="391.375" transform="rotate(0)"><tspan id="SvgjsTspan1618" dy="16" x="324.837739965096"><tspan id="SvgjsTspan1619" style="text-decoration:;">方法内存地址</tspan></tspan></text></g><g id="SvgjsG1620" transform="translate(67.375,466)"><path id="SvgjsPath1621" d="M 0 0L 93.75 0L 93.75 33L 0 33Z" stroke="rgba(50,50,50,1)" stroke-width="1.5" fill-opacity="1" fill="#d6d6d6"></path><g id="SvgjsG1622"><text id="SvgjsText1623" font-family="微软雅黑" text-anchor="middle" font-size="13px" width="74px" fill="#323232" font-weight="400" align="middle" lineHeight="125%" anchor="middle" family="微软雅黑" size="13px" weight="400" font-style="" opacity="1" y="5.875" transform="rotate(0)"><tspan id="SvgjsTspan1624" dy="16" x="47"><tspan id="SvgjsTspan1625" style="text-decoration:;">局部变量表</tspan></tspan></text></g></g><g id="SvgjsG1626" transform="translate(227.75,435.25)"><path id="SvgjsPath1627" d="M 0 4Q 0 0 4 0L 123.5 0Q 127.5 0 127.5 4L 127.5 66Q 127.5 70 123.5 70L 4 70Q 0 70 0 66Z" stroke="rgba(50,50,50,1)" stroke-width="1.5" fill-opacity="1" fill="#d6d6d6"></path><g id="SvgjsG1628"><text id="SvgjsText1629" font-family="微软雅黑" text-anchor="middle" font-size="13px" width="108px" fill="#323232" font-weight="400" align="top" lineHeight="125%" anchor="middle" family="微软雅黑" size="13px" weight="400" font-style="" opacity="1" y="-2.625" transform="rotate(0)"><tspan id="SvgjsTspan1630" dy="16" x="64"><tspan id="SvgjsTspan1631" style="text-decoration:;">局部变量表</tspan></tspan></text></g></g><g id="SvgjsG1632"><path id="SvgjsPath1633" d="M161.87277791982206 482.4423095967547C 188.2217248943484 482.5 200.6532751056516 470.25 225.05799948864063 470.4576854516832" stroke="#323232" stroke-width="1.5" fill="none" marker-end="url(#SvgjsMarker1634)"></path></g><g id="SvgjsG1636" transform="translate(263.5,470)"><path id="SvgjsPath1637" d="M 7.333333333333333 0L 48.666666666666664 0C 58.44444444444444 0 58.44444444444444 22 48.666666666666664 22L 7.333333333333333 22C -2.444444444444444 22 -2.444444444444444 0 7.333333333333333 0Z" stroke-dasharray="3,4" stroke="rgba(232,85,164,1)" stroke-width="1.5" fill-opacity="1" fill="#d6d6d6"></path><g id="SvgjsG1638"><text id="SvgjsText1639" font-family="微软雅黑" text-anchor="middle" font-size="13px" width="36px" fill="#323232" font-weight="400" align="middle" lineHeight="125%" anchor="middle" family="微软雅黑" size="13px" weight="400" font-style="" opacity="1" y="0.375" transform="rotate(0)"><tspan id="SvgjsTspan1640" dy="16" x="28"><tspan id="SvgjsTspan1641" style="text-decoration:;">math</tspan></tspan></text></g></g><g id="SvgjsG1642" transform="translate(446,316)"><path id="SvgjsPath1643" d="M 0 24C 0 -8 54 -8 54 24C 54 56 0 56 0 24Z" stroke="rgba(232,85,164,1)" stroke-width="1.5" fill-opacity="1" fill="#d6d6d6"></path><g id="SvgjsG1644"><text id="SvgjsText1645" font-family="微软雅黑" text-anchor="middle" font-size="13px" width="34px" fill="#323232" font-weight="400" align="middle" lineHeight="125%" anchor="middle" family="微软雅黑" size="13px" weight="400" font-style="" opacity="1" y="13.375" transform="rotate(0)"><tspan id="SvgjsTspan1646" dy="16" x="27"><tspan id="SvgjsTspan1647" style="text-decoration:;">math</tspan></tspan></text></g></g><g id="SvgjsG1648"><path id="SvgjsPath1649" d="M320.2490927565637 481.0368787481327C 394.1203592780501 494.15758265087953 370.51683482880424 346.60392123953454 443.36183788154324 340.57454385101545" stroke="#e855a4" stroke-width="1.5" fill="none" marker-end="url(#SvgjsMarker1650)"></path></g><g id="SvgjsG1652"><path id="SvgjsPath1653" d="M585.75 363C 573.3 363 566.7 363 556.2 363" stroke="#e855a4" stroke-width="1.5" fill="none" marker-end="url(#SvgjsMarker1654)"></path></g><g id="SvgjsG1656" transform="translate(505.5,421)"><path id="SvgjsPath1657" d="M 0 24.5C 0 -8.166666666666666 71 -8.166666666666666 71 24.5C 71 57.166666666666664 0 57.166666666666664 0 24.5Z" stroke="rgba(50,50,50,1)" stroke-width="1.5" fill-opacity="1" fill="#d6d6d6"></path><g id="SvgjsG1658"><text id="SvgjsText1659" font-family="微软雅黑" text-anchor="middle" font-size="13px" width="51px" fill="#323232" font-weight="400" align="middle" lineHeight="125%" anchor="middle" family="微软雅黑" size="13px" weight="400" font-style="" opacity="1" y="5.375" transform="rotate(0)"><tspan id="SvgjsTspan1660" dy="16" x="35.5"><tspan id="SvgjsTspan1661" style="text-decoration:;">静态变</tspan></tspan><tspan id="SvgjsTspan1662" dy="16" x="35.5"><tspan id="SvgjsTspan1663" style="text-decoration:;">量(user)</tspan></tspan></text></g></g><g id="SvgjsG1664"><path id="SvgjsPath1665" d="M541.0587833619044 420.25230720455306C 543.5100853911325 392.3095926949577 543.5100853911325 377.6904073050423 541.2116201028557 351.6916940636089" stroke="#4ccbcd" stroke-width="1.5" fill="none" marker-end="url(#SvgjsMarker1666)"></path></g><g id="SvgjsG1668" transform="translate(514,301)"><path id="SvgjsPath1669" d="M 0 24C 0 -8 54 -8 54 24C 54 56 0 56 0 24Z" stroke="rgba(232,85,164,1)" stroke-width="1.5" fill-opacity="1" fill="#d6d6d6"></path><g id="SvgjsG1670"><text id="SvgjsText1671" font-family="微软雅黑" text-anchor="middle" font-size="13px" width="34px" fill="#323232" font-weight="400" align="middle" lineHeight="125%" anchor="middle" family="微软雅黑" size="13px" weight="400" font-style="" opacity="1" y="13.375" transform="rotate(0)"><tspan id="SvgjsTspan1672" dy="16" x="27"><tspan id="SvgjsTspan1673" style="text-decoration:;">user</tspan></tspan></text></g></g><g id="SvgjsG1674"><path id="SvgjsPath1675" d="M505.5 444.25C 505.5 423 505.5 412 505.5 392.7" stroke="#4ccbcd" stroke-width="1.5" fill="none" marker-end="url(#SvgjsMarker1676)"></path></g><g id="SvgjsG1678" transform="translate(425.875,445)"><path id="SvgjsPath1679" d="M 0 17C 0 -5.666666666666667 44 -5.666666666666667 44 17C 44 39.666666666666664 0 39.666666666666664 0 17Z" stroke="rgba(50,50,50,1)" stroke-width="1.5" fill-opacity="1" fill="#d6d6d6"></path><g id="SvgjsG1680"><text id="SvgjsText1681" font-family="微软雅黑" text-anchor="middle" font-size="13px" width="24px" fill="#323232" font-weight="400" align="middle" lineHeight="125%" anchor="middle" family="微软雅黑" size="13px" weight="400" font-style="" opacity="1" y="-2.125" transform="rotate(0)"><tspan id="SvgjsTspan1682" dy="16" x="22"><tspan id="SvgjsTspan1683" style="text-decoration:;">常</tspan></tspan><tspan id="SvgjsTspan1684" dy="16" x="22"><tspan id="SvgjsTspan1685" style="text-decoration:;">量</tspan></tspan></text></g></g><g id="SvgjsG1686" transform="translate(607.5,652)"><path id="SvgjsPath1687" d="M 0 4Q 0 0 4 0L 447 0Q 451 0 451 4L 451 50Q 451 54 447 54L 4 54Q 0 54 0 50Z" stroke="rgba(50,50,50,1)" stroke-width="1.5" fill-opacity="1" fill="#d6d6d6"></path><g id="SvgjsG1688"><text id="SvgjsText1689" font-family="微软雅黑" text-anchor="middle" font-size="13px" width="431px" fill="#323232" font-weight="400" align="middle" lineHeight="125%" anchor="middle" family="微软雅黑" size="13px" weight="400" font-style="" opacity="1" y="16.375" transform="rotate(0)"></text></g></g><g id="SvgjsG1690" transform="translate(625.5,658.5)"><path id="SvgjsPath1691" d="M 0 4Q 0 0 4 0L 92 0Q 96 0 96 4L 96 34Q 96 38 92 38L 4 38Q 0 38 0 34Z" stroke="rgba(50,50,50,1)" stroke-width="1.5" fill-opacity="1" fill="#95da69"></path><g id="SvgjsG1692"><text id="SvgjsText1693" font-family="微软雅黑" text-anchor="middle" font-size="13px" width="76px" fill="#323232" font-weight="400" align="middle" lineHeight="125%" anchor="middle" family="微软雅黑" size="13px" weight="400" font-style="" opacity="1" y="8.375" transform="rotate(0)"><tspan id="SvgjsTspan1694" dy="16" x="48"><tspan id="SvgjsTspan1695" style="text-decoration:;">Eden(8/10)</tspan></tspan></text></g></g><g id="SvgjsG1696" transform="translate(749.5,658.5)"><path id="SvgjsPath1697" d="M 0 4Q 0 0 4 0L 64 0Q 68 0 68 4L 68 34Q 68 38 64 38L 4 38Q 0 38 0 34Z" stroke="rgba(50,50,50,1)" stroke-width="1.5" fill-opacity="1" fill="#95da69"></path><g id="SvgjsG1698"><text id="SvgjsText1699" font-family="微软雅黑" text-anchor="middle" font-size="13px" width="48px" fill="#323232" font-weight="400" align="middle" lineHeight="125%" anchor="middle" family="微软雅黑" size="13px" weight="400" font-style="" opacity="1" y="8.375" transform="rotate(0)"><tspan id="SvgjsTspan1700" dy="16" x="34"><tspan id="SvgjsTspan1701" style="text-decoration:;">s0(1/10)</tspan></tspan></text></g></g><g id="SvgjsG1702" transform="translate(855.5,658.5)"><path id="SvgjsPath1703" d="M 0 4Q 0 0 4 0L 63 0Q 67 0 67 4L 67 34Q 67 38 63 38L 4 38Q 0 38 0 34Z" stroke="rgba(50,50,50,1)" stroke-width="1.5" fill-opacity="1" fill="#95da69"></path><g id="SvgjsG1704"><text id="SvgjsText1705" font-family="微软雅黑" text-anchor="middle" font-size="13px" width="47px" fill="#323232" font-weight="400" align="middle" lineHeight="125%" anchor="middle" family="微软雅黑" size="13px" weight="400" font-style="" opacity="1" y="8.375" transform="rotate(0)"><tspan id="SvgjsTspan1706" dy="16" x="33.5"><tspan id="SvgjsTspan1707" style="text-decoration:;">s1(1/10)</tspan></tspan></text></g></g><g id="SvgjsG1708" transform="matrix(-1.8369701987210297e-16,-1,1,-1.8369701987210297e-16,691,758)"><path id="SvgjsPath1709" d="M 50.5 0Q 45.45 0 45.45 9L 45.45 88.25Q 45.45 97.25 28.5 97.25Q 45.45 97.25 45.45 106.25L 45.45 185.5Q 45.45 194.5 50.5 194.5" stroke="rgba(50,50,50,1)" stroke-width="1.5" fill="none"></path><path id="SvgjsPath1710" d="M 0 0L 50.5 0L 50.5 194.5L 0 194.5Z" stroke="none" fill="none"></path><g id="SvgjsG1711"><text id="SvgjsText1712" font-family="微软雅黑" text-anchor="end" font-size="13px" width="24px" fill="#323232" font-weight="400" align="middle" lineHeight="125%" anchor="end" family="微软雅黑" size="13px" weight="400" font-style="" opacity="1" y="86.625" transform="rotate(0)"></text></g></g><g id="SvgjsG1713" transform="matrix(6.123233995736766e-17,1,-1,6.123233995736766e-17,900.5,618)"><path id="SvgjsPath1714" d="M 33 0Q 29.7 0 29.7 9L 29.7 49Q 29.7 58 11 58Q 29.7 58 29.7 67L 29.7 107Q 29.7 116 33 116" stroke="rgba(50,50,50,1)" stroke-width="1.5" fill="none"></path><path id="SvgjsPath1715" d="M 0 0L 33 0L 33 116L 0 116Z" stroke="none" fill="none"></path><g id="SvgjsG1716"><text id="SvgjsText1717" font-family="微软雅黑" text-anchor="end" font-size="13px" width="6px" fill="#323232" font-weight="400" align="middle" lineHeight="125%" anchor="end" family="微软雅黑" size="13px" weight="400" font-style="" opacity="1" y="47.375" transform="rotate(0)"></text></g></g><g id="SvgjsG1718" transform="translate(794.5,595.5)"><path id="SvgjsPath1719" d="M 0 0L 100 0L 100 40L 0 40Z" stroke="none" fill="none"></path><g id="SvgjsG1720"><text id="SvgjsText1721" font-family="微软雅黑" text-anchor="middle" font-size="13px" width="100px" fill="#323232" font-weight="400" align="middle" lineHeight="125%" anchor="middle" family="微软雅黑" size="13px" weight="400" font-style="" opacity="1" y="9.375" transform="rotate(0)"><tspan id="SvgjsTspan1722" dy="16" x="50"><tspan id="SvgjsTspan1723" style="text-decoration:;">Survivor</tspan></tspan></text></g></g><g id="SvgjsG1724" transform="translate(738.5,722.5)"><path id="SvgjsPath1725" d="M 0 0L 100 0L 100 40L 0 40Z" stroke="none" fill="none"></path><g id="SvgjsG1726"><text id="SvgjsText1727" font-family="微软雅黑" text-anchor="middle" font-size="13px" width="100px" fill="#323232" font-weight="400" align="middle" lineHeight="125%" anchor="middle" family="微软雅黑" size="13px" weight="400" font-style="" opacity="1" y="9.375" transform="rotate(0)"><tspan id="SvgjsTspan1728" dy="16" x="50"><tspan id="SvgjsTspan1729" style="text-decoration:;">年轻代</tspan></tspan></text></g></g><g id="SvgjsG1730" transform="translate(954.5,658.5)"><path id="SvgjsPath1731" d="M 0 4Q 0 0 4 0L 92 0Q 96 0 96 4L 96 34Q 96 38 92 38L 4 38Q 0 38 0 34Z" stroke="rgba(50,50,50,1)" stroke-width="1.5" fill-opacity="1" fill="#ed9745"></path><g id="SvgjsG1732"><text id="SvgjsText1733" font-family="微软雅黑" text-anchor="middle" font-size="13px" width="76px" fill="#323232" font-weight="400" align="middle" lineHeight="125%" anchor="middle" family="微软雅黑" size="13px" weight="400" font-style="" opacity="1" y="8.375" transform="rotate(0)"><tspan id="SvgjsTspan1734" dy="16" x="48"><tspan id="SvgjsTspan1735" style="text-decoration:;">老年代(2/3)</tspan></tspan></text></g></g><g id="SvgjsG1736"><path id="SvgjsPath1737" d="M722.25 677.5C 732.7 677.5 738.3 677.5 746.8 677.5" stroke="#323232" stroke-width="1.5" fill="none" marker-end="url(#SvgjsMarker1738)"></path></g><g id="SvgjsG1740"><path id="SvgjsPath1741" d="M820.2 677.5C 832.7 677.5 840.3 677.5 852.8 677.5" stroke="#323232" stroke-width="1.5" fill="none" marker-start="url(#SvgjsMarker1742)" marker-end="url(#SvgjsMarker1744)"></path></g><g id="SvgjsG1746"><path id="SvgjsPath1747" d="M923.25 677.5C 935.3 677.5 941.7 677.5 951.8 677.5" stroke="#323232" stroke-width="1.5" fill="none" marker-end="url(#SvgjsMarker1748)"></path></g><g id="SvgjsG1750" transform="translate(595,628)"><path id="SvgjsPath1751" d="M 0 24C 0 -8 54 -8 54 24C 54 56 0 56 0 24Z" stroke="rgba(232,85,164,1)" stroke-width="1.5" fill-opacity="1" fill="#d6d6d6"></path><g id="SvgjsG1752"><text id="SvgjsText1753" font-family="微软雅黑" text-anchor="middle" font-size="13px" width="34px" fill="#323232" font-weight="400" align="middle" lineHeight="125%" anchor="middle" family="微软雅黑" size="13px" weight="400" font-style="" opacity="1" y="13.375" transform="rotate(0)"><tspan id="SvgjsTspan1754" dy="16" x="27"><tspan id="SvgjsTspan1755" style="text-decoration:;">user</tspan></tspan></text></g></g><g id="SvgjsG1756" transform="translate(595,682)"><path id="SvgjsPath1757" d="M 0 24C 0 -8 54 -8 54 24C 54 56 0 56 0 24Z" stroke="rgba(232,85,164,1)" stroke-width="1.5" fill-opacity="1" fill="#d6d6d6"></path><g id="SvgjsG1758"><text id="SvgjsText1759" font-family="微软雅黑" text-anchor="middle" font-size="13px" width="34px" fill="#323232" font-weight="400" align="middle" lineHeight="125%" anchor="middle" family="微软雅黑" size="13px" weight="400" font-style="" opacity="1" y="13.375" transform="rotate(0)"><tspan id="SvgjsTspan1760" dy="16" x="27"><tspan id="SvgjsTspan1761" style="text-decoration:;">math</tspan></tspan></text></g></g><g id="SvgjsG1762"><path id="SvgjsPath1763" d="M320.23118063064635 481.1669577352734C 459.61997538340984 505.7069321963012 453.2598723997166 718.4006543317428 592.3017740820721 706.0978616156731" stroke="#e855a4" stroke-width="1.5" fill="none" marker-end="url(#SvgjsMarker1764)"></path></g><g id="SvgjsG1766"><path id="SvgjsPath1767" d="M935.926450116283 510.7463848970908C 936 618.6324076875773 704.5 543.3675923124227 704.7647795813809 649.3130143704732" stroke="#323232" stroke-width="1.5" fill="none" marker-end="url(#SvgjsMarker1768)"></path><rect id="SvgjsRect1770" width="58" height="16" x="731.526061090743" y="583.3338104090024" fill="#ffffff"></rect><text id="SvgjsText1771" font-family="微软雅黑" text-anchor="middle" font-size="13px" width="58px" fill="#323232" font-weight="400" align="top" lineHeight="16px" anchor="middle" family="微软雅黑" size="13px" weight="400" font-style="" opacity="1" y="580.7088104090024" transform="rotate(0)"><tspan id="SvgjsTspan1772" dy="16" x="760.526061090743"><tspan id="SvgjsTspan1773" style="text-decoration:;">minor GC</tspan></tspan></text></g><g id="SvgjsG1774"><path id="SvgjsPath1775" d="M936.0642812396233 510.7472402038384C 936 573.7749166992792 1008.5 588.2250833007208 1008.2685875373563 649.3099352661817" stroke="#323232" stroke-width="1.5" fill="none" marker-end="url(#SvgjsMarker1776)"></path><rect id="SvgjsRect1778" width="42" height="16" x="955.5605377467222" y="577.3489635852906" fill="#ffffff"></rect><text id="SvgjsText1779" font-family="微软雅黑" text-anchor="middle" font-size="13px" width="42px" fill="#323232" font-weight="400" align="top" lineHeight="16px" anchor="middle" family="微软雅黑" size="13px" weight="400" font-style="" opacity="1" y="574.7239635852906" transform="rotate(0)"><tspan id="SvgjsTspan1780" dy="16" x="976.5605377467222"><tspan id="SvgjsTspan1781" style="text-decoration:;">full GC</tspan></tspan></text></g><g id="SvgjsG1782" transform="translate(46,610.5)"><path id="SvgjsPath1783" d="M 0 4Q 0 0 4 0L 130.5 0Q 134.5 0 134.5 4L 134.5 44Q 134.5 48 130.5 48L 4 48Q 0 48 0 44Z" stroke="rgba(50,50,50,1)" stroke-width="1.5" fill-opacity="1" fill="#caedb4"></path><g id="SvgjsG1784"><text id="SvgjsText1785" font-family="微软雅黑" text-anchor="middle" font-size="13px" width="115px" fill="#323232" font-weight="400" align="middle" lineHeight="125%" anchor="middle" family="微软雅黑" size="13px" weight="400" font-style="" opacity="1" y="13.375" transform="rotate(0)"><tspan id="SvgjsTspan1786" dy="16" x="67.5"><tspan id="SvgjsTspan1787" style="text-decoration:;">本地方法栈</tspan></tspan></text></g></g></svg>